<svg xmlns="http://www.w3.org/2000/svg" xmlns:xlink="http://www.w3.org/1999/xlink" width="546" height="452.807" viewBox="0 0 546 452.807">
  <defs>
    <linearGradient id="linear-gradient" x1="0.5" y1="1" x2="0.5" gradientUnits="objectBoundingBox">
      <stop offset="0" stop-color="gray" stop-opacity="0.251"/>
      <stop offset="0.54" stop-color="gray" stop-opacity="0.122"/>
      <stop offset="1" stop-color="gray" stop-opacity="0.102"/>
    </linearGradient>
    <linearGradient id="linear-gradient-2" x1="6.341" y1="1" x2="6.341" y2="0" xlink:href="#linear-gradient"/>
  </defs>
  <g id="Phone" transform="translate(-15.535 -244.964)">
    <g id="Mobile" transform="translate(15.535 244.964)">
      <g id="Group_43" data-name="Group 43" transform="translate(0 0)">
        <path id="Path_78" data-name="Path 78" d="M627.111,299.786c-20.971,33.925-17.042,80.141-7.831,116.582,3.081,12.2,6.632,25.082,4,38.736-3.223,16.7-14.972,29.808-26.863,37.317-21.678,13.655-46.432,13.276-64.457-1-15.566-12.332-25.817-33.84-41.71-45.51-26.574-19.535-63.066-7.7-94.752,10.562-22.407,12.886-47.07,29.283-67.781,20-14.571-6.519-23.657-24.912-27.9-44.928-2.047-9.663-3.285-20.219-7.978-27.581a30.955,30.955,0,0,0-10.613-9.708c-36.328-21.9-85.479-3.59-120.512-28.395-23.662-16.747-37.114-51.339-41.535-88.328s-.786-76.568,3.766-115.536c3.24-27.705,7.622-57.344,22.164-79.876,15.385-23.832,39.635-34.49,60.714-32.228s39.381,15.617,55.156,31.94c19.716,20.4,37.5,46.454,63.015,53.036,17.381,4.484,36.362-.707,54.845-3.641,30.86-4.908,61.291-3.5,91.506-1.657,28.926,1.764,58.028,3.958,84.981,14.135,19.071,7.209,33.71,22.215,51.509,31.974,11.6,6.361,24.692,7.169,35.5,15.651,13.315,10.449,24.839,29.735,19.507,54.115C656.761,268.638,638.238,281.784,627.111,299.786Z" transform="translate(-117.177 -49.595)" fill="#ffad12" opacity="0.1"/>
        <path id="Path_79" data-name="Path 79" d="M781.67,266.623s57.106-47.851,69.806-71.977A344.656,344.656,0,0,1,880.34,149.73" transform="translate(-405.958 -93.113)" fill="none" stroke="#535461" stroke-miterlimit="10" stroke-width="2"/>
        <path id="Path_80" data-name="Path 80" d="M923.913,240.839l-24.7-5.569S905.039,261.324,923.913,240.839Z" transform="translate(-457.04 -130.287)" fill="#ffad12"/>
        <path id="Path_81" data-name="Path 81" d="M873.268,198.08l14.214,21.288S859.693,221.375,873.268,198.08Z" transform="translate(-444.143 -114.125)" fill="#ffad12"/>
        <path id="Path_82" data-name="Path 82" d="M942.737,206.688,920.16,202.73S934.34,224.3,942.737,206.688Z" transform="translate(-466.145 -116.146)" fill="#ffad12"/>
        <path id="Path_83" data-name="Path 83" d="M899.34,176.08l11.122,14.565S890.775,192.511,899.34,176.08Z" transform="translate(-456.158 -104.564)" fill="#ffad12"/>
        <path id="Path_84" data-name="Path 84" d="M940.81,170.95s19.224.916,21.486,2.754-2.867,12.609-10.177,10.85S940.81,170.95,940.81,170.95Z" transform="translate(-475.119 -102.335)" fill="#ffad12"/>
        <path id="Path_85" data-name="Path 85" d="M921.719,140.56s7.854,14.311,7.56,17.036-11.97,5.784-14.328-4.523S921.719,140.56,921.719,140.56Z" transform="translate(-463.712 -89.127)" fill="#ffad12"/>
        <circle id="Ellipse_18" data-name="Ellipse 18" cx="5.346" cy="5.346" r="5.346" transform="translate(470.625 64.24) rotate(-72.474)" fill="#ffd037"/>
        <circle id="Ellipse_19" data-name="Ellipse 19" cx="5.346" cy="5.346" r="5.346" transform="translate(462.257 58.739) rotate(-72.474)" fill="#ffd037"/>
        <path id="Path_86" data-name="Path 86" d="M359.134,583.362S368.3,556.1,310.2,523.231c0,0-58.995-17.205-52.962-76.291,0,0-68.008,49.824-21.989,113.291s85.739,49.615,85.739,49.615Z" transform="translate(-161.544 -222.277)" fill="#ffad12"/>
        <path id="Path_87" data-name="Path 87" d="M364.629,595.677s-28.35-30.64-55.523-42.485a54.116,54.116,0,0,1-14.763-9.832A67.559,67.559,0,0,1,273.932,480.6l6.53-33.659" transform="translate(-184.753 -222.277)" fill="none" stroke="#535461" stroke-miterlimit="10" stroke-width="2"/>
        <rect id="Rectangle_22" data-name="Rectangle 22" width="322.629" height="374.601" transform="translate(109.166 18.769)" fill="url(#linear-gradient)"/>
        <rect id="Rectangle_23" data-name="Rectangle 23" width="315.115" height="365.871" transform="translate(112.926 23.128)" fill="#f7f7fd"/>
        <rect id="Rectangle_24" data-name="Rectangle 24" width="79.661" height="6.344" transform="translate(131.957 64.369)" fill="#e2e2ec"/>
        <rect id="Rectangle_25" data-name="Rectangle 25" width="136.055" height="6.344" transform="translate(131.957 79.878)" fill="#e2e2ec"/>
        <rect id="Rectangle_26" data-name="Rectangle 26" width="56.535" height="48.784" transform="translate(356.414 58.308)" fill="#fff"/>
        <path id="Path_88" data-name="Path 88" d="M803.541,152.785V201H747.565V152.785h55.976m.565-.565H747v49.349h57.107Z" transform="translate(-390.891 -94.195)" fill="#e2e2ec"/>
        <rect id="Rectangle_27" data-name="Rectangle 27" width="56.535" height="48.784" transform="translate(299.313 58.308)" fill="#fff"/>
        <path id="Path_89" data-name="Path 89" d="M702.541,152.785V201H646.565V152.785h55.976m.565-.565H646v49.349h57.106Z" transform="translate(-346.998 -94.195)" fill="#e2e2ec"/>
        <rect id="Rectangle_28" data-name="Rectangle 28" width="56.535" height="48.784" transform="translate(356.414 107.657)" fill="#fff"/>
        <path id="Path_90" data-name="Path 90" d="M803.541,240.065v48.218H747.565V240.065h55.976m.565-.565H747v49.349h57.107Z" transform="translate(-390.891 -132.126)" fill="#e2e2ec"/>
        <rect id="Rectangle_29" data-name="Rectangle 29" width="56.535" height="48.784" transform="translate(299.313 107.657)" fill="#fff"/>
        <path id="Path_91" data-name="Path 91" d="M702.541,240.065v48.218H646.565V240.065h55.976m.565-.565H646v49.349h57.106Z" transform="translate(-346.998 -132.126)" fill="#e2e2ec"/>
        <rect id="Rectangle_30" data-name="Rectangle 30" width="56.535" height="48.784" transform="translate(242.212 107.657)" fill="#fff"/>
        <path id="Path_92" data-name="Path 92" d="M601.591,240.065v48.218H545.615V240.065h55.976m.565-.565H545.05v49.349h57.106Z" transform="translate(-303.126 -132.126)" fill="#e2e2ec"/>
        <rect id="Rectangle_31" data-name="Rectangle 31" width="56.535" height="48.784" transform="translate(185.112 107.657)" fill="#fff"/>
        <path id="Path_93" data-name="Path 93" d="M500.6,240.065v48.218H444.625V240.065H500.6m.565-.565H444.06v49.349h57.106Z" transform="translate(-259.237 -132.126)" fill="#e2e2ec"/>
        <rect id="Rectangle_32" data-name="Rectangle 32" width="56.535" height="48.784" transform="translate(128.011 107.657)" fill="#fff"/>
        <path id="Path_94" data-name="Path 94" d="M399.611,240.065v48.218H343.635V240.065h55.976m.565-.565H343.07v49.349h57.106Z" transform="translate(-215.347 -132.126)" fill="#e2e2ec"/>
        <rect id="Rectangle_33" data-name="Rectangle 33" width="56.535" height="48.784" transform="translate(356.414 157)" fill="#fff"/>
        <path id="Path_95" data-name="Path 95" d="M803.541,327.345v48.218H747.565V327.345h55.976m.565-.565H747v49.349h57.107Z" transform="translate(-390.891 -170.057)" fill="#e2e2ec"/>
        <rect id="Rectangle_34" data-name="Rectangle 34" width="56.535" height="48.784" transform="translate(299.313 157)" fill="#fff"/>
        <path id="Path_96" data-name="Path 96" d="M702.541,327.345v48.218H646.565V327.345h55.976m.565-.565H646v49.349h57.106Z" transform="translate(-346.998 -170.057)" fill="#e2e2ec"/>
        <rect id="Rectangle_35" data-name="Rectangle 35" width="56.535" height="48.784" transform="translate(242.212 157)" fill="#fff"/>
        <path id="Path_97" data-name="Path 97" d="M601.591,327.345v48.218H545.615V327.345h55.976m.565-.565H545.05v49.349h57.106Z" transform="translate(-303.126 -170.057)" fill="#e2e2ec"/>
        <rect id="Rectangle_36" data-name="Rectangle 36" width="56.535" height="48.784" transform="translate(185.112 157)" fill="#fff"/>
        <path id="Path_98" data-name="Path 98" d="M500.6,327.345v48.218H444.625V327.345H500.6m.565-.565H444.06v49.349h57.106Z" transform="translate(-259.237 -170.057)" fill="#e2e2ec"/>
        <rect id="Rectangle_37" data-name="Rectangle 37" width="56.535" height="48.784" transform="translate(128.011 157)" fill="#fff"/>
        <path id="Path_99" data-name="Path 99" d="M399.611,327.345v48.218H343.635V327.345h55.976m.565-.565H343.07v49.349h57.106Z" transform="translate(-215.347 -170.057)" fill="#e2e2ec"/>
        <rect id="Rectangle_38" data-name="Rectangle 38" width="56.535" height="48.784" transform="translate(356.414 206.349)" fill="#fff"/>
        <path id="Path_100" data-name="Path 100" d="M803.541,414.615v48.218H747.565V414.615h55.976m.565-.565H747V463.4h57.107Z" transform="translate(-390.891 -207.983)" fill="#e2e2ec"/>
        <rect id="Rectangle_39" data-name="Rectangle 39" width="56.535" height="48.784" transform="translate(299.313 206.349)" fill="#fff"/>
        <path id="Path_101" data-name="Path 101" d="M702.541,414.615v48.218H646.565V414.615h55.976m.565-.565H646V463.4h57.106Z" transform="translate(-346.998 -207.983)" fill="#e2e2ec"/>
        <rect id="Rectangle_40" data-name="Rectangle 40" width="56.535" height="48.784" transform="translate(242.212 206.349)" fill="#fff"/>
        <path id="Path_102" data-name="Path 102" d="M601.591,414.615v48.218H545.615V414.615h55.976m.565-.565H545.05V463.4h57.106Z" transform="translate(-303.126 -207.983)" fill="#e2e2ec"/>
        <rect id="Rectangle_41" data-name="Rectangle 41" width="56.535" height="48.784" transform="translate(185.112 206.349)" fill="#fff"/>
        <path id="Path_103" data-name="Path 103" d="M500.6,414.615v48.218H444.625V414.615H500.6m.565-.565H444.06V463.4h57.106Z" transform="translate(-259.237 -207.983)" fill="#e2e2ec"/>
        <rect id="Rectangle_42" data-name="Rectangle 42" width="56.535" height="48.784" transform="translate(128.011 206.349)" fill="#fff"/>
        <path id="Path_104" data-name="Path 104" d="M399.611,414.615v48.218H343.635V414.615h55.976m.565-.565H343.07V463.4h57.106Z" transform="translate(-215.347 -207.983)" fill="#e2e2ec"/>
        <rect id="Rectangle_43" data-name="Rectangle 43" width="56.535" height="48.784" transform="translate(356.414 255.693)" fill="#fff"/>
        <path id="Path_105" data-name="Path 105" d="M803.541,501.9v48.213H747.565V501.9h55.976m.565-.565H747v49.343h57.107Z" transform="translate(-390.891 -245.914)" fill="#e2e2ec"/>
        <rect id="Rectangle_44" data-name="Rectangle 44" width="56.535" height="48.784" transform="translate(299.313 255.693)" fill="#fff"/>
        <path id="Path_106" data-name="Path 106" d="M702.541,501.9v48.213H646.565V501.9h55.976m.565-.565H646v49.343h57.106Z" transform="translate(-346.998 -245.914)" fill="#e2e2ec"/>
        <rect id="Rectangle_45" data-name="Rectangle 45" width="56.535" height="48.784" transform="translate(242.212 255.693)" fill="#fff"/>
        <path id="Path_107" data-name="Path 107" d="M601.591,501.9v48.213H545.615V501.9h55.976m.565-.565H545.05v49.343h57.106Z" transform="translate(-303.126 -245.914)" fill="#e2e2ec"/>
        <rect id="Rectangle_46" data-name="Rectangle 46" width="56.535" height="48.784" transform="translate(185.112 255.693)" fill="#fff"/>
        <path id="Path_108" data-name="Path 108" d="M500.6,501.9v48.213H444.625V501.9H500.6m.565-.565H444.06v49.343h57.106Z" transform="translate(-259.237 -245.914)" fill="#e2e2ec"/>
        <rect id="Rectangle_47" data-name="Rectangle 47" width="56.535" height="48.784" transform="translate(128.011 255.693)" fill="#fff"/>
        <path id="Path_109" data-name="Path 109" d="M399.611,501.9v48.213H343.635V501.9h55.976m.565-.565H343.07v49.343h57.106Z" transform="translate(-215.347 -245.914)" fill="#e2e2ec"/>
        <rect id="Rectangle_48" data-name="Rectangle 48" width="56.535" height="48.784" transform="translate(356.414 305.042)" fill="#fff"/>
        <path id="Path_110" data-name="Path 110" d="M803.541,589.165v48.218H747.565V589.165h55.976m.565-.565H747v49.349h57.107Z" transform="translate(-390.891 -283.841)" fill="#e2e2ec"/>
        <rect id="Rectangle_49" data-name="Rectangle 49" width="56.535" height="48.784" transform="translate(299.313 305.042)" fill="#fff"/>
        <path id="Path_111" data-name="Path 111" d="M702.541,589.165v48.218H646.565V589.165h55.976m.565-.565H646v49.349h57.106Z" transform="translate(-346.998 -283.841)" fill="#e2e2ec"/>
        <rect id="Rectangle_50" data-name="Rectangle 50" width="56.535" height="48.784" transform="translate(242.212 305.042)" fill="#fff"/>
        <path id="Path_112" data-name="Path 112" d="M601.591,589.165v48.218H545.615V589.165h55.976m.565-.565H545.05v49.349h57.106Z" transform="translate(-303.126 -283.841)" fill="#e2e2ec"/>
        <rect id="Rectangle_51" data-name="Rectangle 51" width="56.535" height="48.784" transform="translate(185.112 305.042)" fill="#fff"/>
        <path id="Path_113" data-name="Path 113" d="M500.6,589.165v48.218H444.625V589.165H500.6m.565-.565H444.06v49.349h57.106Z" transform="translate(-259.237 -283.841)" fill="#e2e2ec"/>
        <rect id="Rectangle_52" data-name="Rectangle 52" width="56.535" height="48.784" transform="translate(128.011 305.042)" fill="#fff"/>
        <path id="Path_114" data-name="Path 114" d="M399.611,589.165v48.218H343.635V589.165h55.976m.565-.565H343.07v49.349h57.106Z" transform="translate(-215.347 -283.841)" fill="#e2e2ec"/>
        <path id="Path_115" data-name="Path 115" d="M526.706,743.553c1.617-1.227,3.138-2.674,3.607-4.438a3.754,3.754,0,0,0-2.522-4.523c-2.313-.724-4.784.565-6.661,1.905s-4.02,2.827-6.474,2.55a7.216,7.216,0,0,0,3.048-7.526,2.917,2.917,0,0,0-.848-1.527c-1.284-1.131-3.613-.639-5.151.243-4.891,2.827-6.253,8.227-6.282,13.106-.492-1.758-.079-3.59-.09-5.4a5.136,5.136,0,0,0-2.482-4.778,8.882,8.882,0,0,0-3.788-.729c-2.2-.068-4.648.113-6.146,1.425-1.866,1.628-1.38,4.365.243,6.157s4.094,2.918,6.361,4.156a12.982,12.982,0,0,1,4.523,3.539,3.213,3.213,0,0,1,.339.633h13.779a39.62,39.62,0,0,0,8.543-4.795Z" transform="translate(-279.948 -345.004)" fill="#ffad12"/>
        <circle id="Ellipse_20" data-name="Ellipse 20" cx="3.223" cy="3.223" r="3.223" transform="translate(132.246 111.852)" fill="#fc6681"/>
        <circle id="Ellipse_21" data-name="Ellipse 21" cx="3.223" cy="3.223" r="3.223" transform="translate(140.297 111.852)" fill="#ffd037"/>
        <circle id="Ellipse_22" data-name="Ellipse 22" cx="3.223" cy="3.223" r="3.223" transform="translate(246.052 159.629)" fill="#ffad12"/>
        <circle id="Ellipse_23" data-name="Ellipse 23" cx="3.223" cy="3.223" r="3.223" transform="translate(254.109 159.629)" fill="#ffad12"/>
        <circle id="Ellipse_24" data-name="Ellipse 24" cx="3.223" cy="3.223" r="3.223" transform="translate(418.372 251.961)" fill="#ffad12"/>
        <circle id="Ellipse_25" data-name="Ellipse 25" cx="3.223" cy="3.223" r="3.223" transform="translate(419.983 248.207)" fill="#ffad12"/>
        <circle id="Ellipse_26" data-name="Ellipse 26" cx="3.223" cy="3.223" r="3.223" transform="translate(421.595 244.984)" fill="#ffad12"/>
        <circle id="Ellipse_27" data-name="Ellipse 27" cx="3.223" cy="3.223" r="3.223" transform="translate(361.469 111.852)" fill="#ffad12"/>
        <circle id="Ellipse_28" data-name="Ellipse 28" cx="3.223" cy="3.223" r="3.223" transform="translate(369.52 111.852)" fill="#ffad12"/>
        <circle id="Ellipse_29" data-name="Ellipse 29" cx="3.223" cy="3.223" r="3.223" transform="translate(377.577 111.852)" fill="#ffad12"/>
        <circle id="Ellipse_30" data-name="Ellipse 30" cx="3.223" cy="3.223" r="3.223" transform="translate(385.629 111.852)" fill="#ffad12"/>
        <circle id="Ellipse_31" data-name="Ellipse 31" cx="3.223" cy="3.223" r="3.223" transform="translate(361.469 211.698)" fill="#ffad12"/>
        <circle id="Ellipse_32" data-name="Ellipse 32" cx="3.223" cy="3.223" r="3.223" transform="translate(369.52 211.698)" fill="#ffad12"/>
        <circle id="Ellipse_33" data-name="Ellipse 33" cx="3.223" cy="3.223" r="3.223" transform="translate(377.577 211.698)" fill="#ffad12"/>
        <circle id="Ellipse_34" data-name="Ellipse 34" cx="3.223" cy="3.223" r="3.223" transform="translate(385.629 211.698)" fill="#ffad12"/>
        <circle id="Ellipse_35" data-name="Ellipse 35" cx="3.223" cy="3.223" r="3.223" transform="translate(189.149 159.629)" fill="#ffd037"/>
        <circle id="Ellipse_36" data-name="Ellipse 36" cx="3.223" cy="3.223" r="3.223" transform="translate(132.246 208.481)" fill="#fc6681"/>
        <path id="Path_116" data-name="Path 116" d="M856.428,376.05c3.534,2.086,9.047,3.443,16.029-1.04l-.068,9.929c.5,6.785,8.917,31.612,8.917,31.612l5.937,20.411a159.715,159.715,0,0,1,6.525,44.4c0,4.981.464,10.115,1.894,13.977,3.161,8.543-1.244,19.552-3.155,23.651a99.314,99.314,0,0,1-9.8,2.759,6.69,6.69,0,0,0-.876.266l-.04-.057s-8.911,3.534-12.869,3.048c-2.951-.362-4.8,3.319-2.488,6.027a18.094,18.094,0,0,1-5.931.78c-3.958-.486-5.942,6.321,1.487,8.266s49.524,0,49.524,0a5.971,5.971,0,0,0,3.166-6.593c3.234-.124,5.253-.221,5.253-.221s7.429-3.392,0-12.648l-.4.3-1.589-4.676v-6.316s9.408-45.233,6.44-50.582-4.455-32.585-4.455-32.585l1.006-29.667c2.686-5.541,4.06-14.226,4.755-21.016a44.588,44.588,0,0,0,1.9-9.968c.119-1.594.215-3.268.277-5a33.545,33.545,0,0,0-1.843-11.189c2.827-4.071,7.424-10.364,11.218-14.084a14.453,14.453,0,0,0,4.456-12.648l-2.477-16.538-5.943-28.208c.746-7.825-.888-12.332-2.691-14.876.43-2.527.831-5.055,1.131-7.593a97.176,97.176,0,0,0-1.736-33.065c-.859-3.783-2.03-7.661-4.682-10.528-3-3.245-7.876-5.224-9-9.476a27.517,27.517,0,0,0-.69-3.2c-1.086-2.782-4.523-3.794-7.531-4.156-5.36-.65-13.112-1.131-18.263.961-3.6,1.47-8.549,5.518-10.517,9.861a7.413,7.413,0,0,0-.322,8.142,18.659,18.659,0,0,0-1.153,6.5,18.975,18.975,0,0,0,12.111,17.6c.119.373.226.741.317,1.1a18.887,18.887,0,0,1,.486,2.652c-.1,1.7-.2,3.443-.283,5.168q-.085.356-.181.7a127.441,127.441,0,0,0-12.439,6.344c2.974,4.376-.5,22.86-.5,22.86-7.43,4.376-14.859,15.566-6.932,27.236s3.466,24.313,3.466,24.313l-1.238,19.015h0v.034l-.249,3.805h.1l-.1,1.442.215.04v1.549c-3.477,1.278-8.56,3.856-11.591,8.623a30.427,30.427,0,0,1-5.185,6.361,3.822,3.822,0,0,0,.594,6.2Zm59.8-50.525a18.093,18.093,0,0,1,1.758-9.567q1.747.034,3.5.04c.119.82.26,1.6.43,2.313,1.006,4.286-3.014,6.338-5.694,7.209Z" transform="translate(-437.615 -112.781)" fill="url(#linear-gradient-2)"/>
        <path id="Path_117" data-name="Path 117" d="M934.969,756.338l1.905,5.716-6.219,6.22-20.49,4.766L895.39,771.61l.956-5.241h0a6.321,6.321,0,0,1,4.693-4.62c6.073-1.425,17.652-4.682,20.083-9.2Z" transform="translate(-455.38 -355.092)" fill="#db8b8b"/>
        <path id="Path_118" data-name="Path 118" d="M934.969,756.338l1.905,5.716-6.219,6.22-20.49,4.766L895.39,771.61l.956-5.241h0a6.321,6.321,0,0,1,4.693-4.62c6.073-1.425,17.652-4.682,20.083-9.2Z" transform="translate(-455.38 -355.092)" opacity="0.1"/>
        <path id="Path_119" data-name="Path 119" d="M891.728,776.367l2.861-3.811-2.861-4.416s-8.577,3.46-12.388,2.985-5.716,6.22,1.431,8.1,47.653,0,47.653,0,7.147-3.336,0-12.388l-6.22,4.766s-10.483,5.716-15.724,4.766Z" transform="translate(-446.929 -361.302)" fill="#2e3037"/>
        <path id="Path_120" data-name="Path 120" d="M881.1,783.337l14.774,1.431L916.365,780l6.219-6.22-.5-1.515-.713-2.126-.712-2.069-13.819-3.811a8.56,8.56,0,0,1-2.827,2.827c-4.489,3.07-12.552,5.287-17.285,6.395a4.958,4.958,0,0,0-.565.175,6.3,6.3,0,0,0-4.1,4.444Z" transform="translate(-449.17 -360.181)" fill="#db8b8b"/>
        <path id="Path_121" data-name="Path 121" d="M881.1,789.491l14.774,1.431,20.49-4.766,6.219-6.219-.5-1.515-5.688,4.376s-10.483,5.716-15.724,4.766h-14.8l2.861-3.811-2.567-3.958a6.3,6.3,0,0,0-4.1,4.444Z" transform="translate(-449.17 -366.335)" opacity="0.1"/>
        <path id="Path_122" data-name="Path 122" d="M877.4,788.167l2.861-3.811L877.4,779.94s-8.577,3.46-12.388,2.985-5.716,6.22,1.431,8.1,47.653,0,47.653,0,7.147-3.336,0-12.388l-6.22,4.766s-10.483,5.716-15.724,4.766Z" transform="translate(-440.701 -366.43)" fill="#2e3037"/>
        <path id="Path_123" data-name="Path 123" d="M910.6,287.251s22.877,2.38,19.541-7.147a17.153,17.153,0,0,1-.707-8.413A23.324,23.324,0,0,1,933.476,262l-21.446,3.336a26.849,26.849,0,0,1,2.906,6.887C917.492,282.326,910.6,287.251,910.6,287.251Z" transform="translate(-461.99 -141.904)" fill="#db8b8b"/>
        <path id="Path_124" data-name="Path 124" d="M958.446,498.82s-.475,20.49-5.241,30.5l-.956,29.068s1.431,26.687,4.291,31.929-6.219,49.558-6.219,49.558V647.5s-15.266,5.716-19.541-.956l4.292-56.711-1.906-78.626Z" transform="translate(-470.76 -244.824)" fill="#474463"/>
        <path id="Path_125" data-name="Path 125" d="M958.446,498.82s-.475,20.49-5.241,30.5l-.956,29.068s1.431,26.687,4.291,31.929-6.219,49.558-6.219,49.558V647.5s-15.266,5.716-19.541-.956l4.292-56.711-1.906-78.626Z" transform="translate(-470.76 -244.824)" opacity="0.1"/>
        <path id="Path_126" data-name="Path 126" d="M980.09,382.51l2.861,7.627,2.38,16.2a14.333,14.333,0,0,1-4.291,12.388c-5.716,5.716-13.344,17.629-13.344,17.629l-9.047-27.14s9.047-1.43,7.627-7.627-.961-17.675-.961-17.675Z" transform="translate(-482.872 -194.276)" fill="#fc6681"/>
        <path id="Path_127" data-name="Path 127" d="M980.09,382.51l2.861,7.627,2.38,16.2a14.333,14.333,0,0,1-4.291,12.388c-5.716,5.716-13.344,17.629-13.344,17.629l-9.047-27.14s9.047-1.43,7.627-7.627-.961-17.675-.961-17.675Z" transform="translate(-482.872 -194.276)" opacity="0.05"/>
        <path id="Path_128" data-name="Path 128" d="M921.66,767.093c6.112,9.612,15.628,4.167,17.313,3.081l-.69-2.1-13.819-3.811A8.563,8.563,0,0,1,921.66,767.093Z" transform="translate(-466.797 -360.181)" opacity="0.1"/>
        <path id="Path_129" data-name="Path 129" d="M887.85,491.017c.475,6.672,8.577,30.973,8.577,30.973l5.716,20a159.128,159.128,0,0,1,6.282,43.5c0,4.88.447,9.912,1.826,13.694,3.811,10.483-3.811,24.782-3.811,24.782,6.672,11.913,18.093,3.811,18.093,3.811v-7.622s9.047-41.462,6.672-49.558-3.336-30.023-3.336-30.023V501a44.882,44.882,0,0,0,13.078-28.452c.113-1.561.2-3.2.266-4.9.385-10.743-6.966-23.357-9.838-27.846-.69-1.086-1.131-1.7-1.131-1.7l-42.078,16.691-.1.04v5.23Z" transform="translate(-452.103 -218.435)" fill="#474463"/>
        <path id="Path_130" data-name="Path 130" d="M913.13,265.33a26.853,26.853,0,0,1,2.906,6.887,18.658,18.658,0,0,0,14.5-.531A23.324,23.324,0,0,1,934.576,262Z" transform="translate(-463.09 -141.904)" opacity="0.1"/>
        <circle id="Ellipse_37" data-name="Ellipse 37" cx="18.585" cy="18.585" r="18.585" transform="translate(440.988 93.397)" fill="#db8b8b"/>
        <path id="Path_131" data-name="Path 131" d="M887.85,460.061l.2.04c19.982,4.111,45.069-16.719,45.069-16.719a24.685,24.685,0,0,1-1.736-3.545c-.69-1.086-1.131-1.7-1.131-1.7l-42.078,16.691-.107,1.668Z" transform="translate(-452.103 -218.453)" opacity="0.1"/>
        <path id="Path_132" data-name="Path 132" d="M889.11,297.244s26.687-16.2,35.265-9.533l11.913,15.266s7.627,2.38,6.22,17.629l5.694,27.632-17.155,4.291s-10.008,9.533-1.906,23.351c0,0-25.257,20.965-45.272,16.68l1.431-22.4s4.292-12.388-3.336-23.826-.475-22.4,6.672-26.687C888.635,319.646,891.966,301.536,889.11,297.244Z" transform="translate(-448.122 -152.378)" fill="#fc6681"/>
        <path id="Path_133" data-name="Path 133" d="M878.447,477.75s-10.008,1.905-14.774,9.533a29.7,29.7,0,0,1-4.987,6.22,3.783,3.783,0,0,0,.565,6.027c3.783,2.262,9.951,3.669,17.743-2.731C890.36,485.852,878.447,477.75,878.447,477.75Z" transform="translate(-438.889 -235.667)" fill="#db8b8b"/>
        <path id="Path_134" data-name="Path 134" d="M908.286,321.555s9.533-.956,11.913,23.826,6.219,30.5,6.219,30.5,2.38,12.869-3.336,20.49S906.4,420.2,906.4,420.2s-11.913,3.336-14.294-8.577l14.774-27.637s2.38-9.533-3.336-16.2S893.512,316.789,908.286,321.555Z" transform="translate(-453.954 -167.63)" opacity="0.1"/>
        <path id="Path_135" data-name="Path 135" d="M906.566,319.025s9.533-.956,11.913,23.826,6.219,30.5,6.219,30.5,2.38,12.869-3.336,20.49-16.68,23.826-16.68,23.826S892.77,421,890.39,409.089l14.774-27.637s2.38-9.533-3.336-16.2S891.809,314.259,906.566,319.025Z" transform="translate(-453.207 -166.531)" fill="#fc6681"/>
        <path id="Path_136" data-name="Path 136" d="M905.051,350.9s-.95,14.757,3.325,22.877,4.292,18.585,0,24.313" transform="translate(-459.539 -180.539)" opacity="0.1"/>
        <path id="Path_137" data-name="Path 137" d="M900.91,312.652s3.811-3.811,14.774-4.291,15.724-3.811,15.724-3.811" transform="translate(-457.779 -160.396)" opacity="0.1"/>
        <path id="Path_138" data-name="Path 138" d="M925.922,204.758c2.895.356,6.22,1.351,7.249,4.071a27.872,27.872,0,0,1,.661,3.138c1.08,4.161,5.767,6.1,8.656,9.284,2.55,2.827,3.675,6.61,4.523,10.313a96.913,96.913,0,0,1,1.7,32.375c-.927,7.916-2.827,15.684-3.359,23.623s.441,16.289,4.778,22.961c1.866,2.867,4.331,5.388,5.654,8.543-2.731,2.216-6.5,2.533-10.025,2.652q-6.146.209-12.3,0a13.116,13.116,0,0,1-6.248-1.3,9.646,9.646,0,0,1-3.279-3.523c-2.346-3.958-2.935-8.764-2.827-13.378s.831-9.2.916-13.824c.045-2.516-.153-5.19-1.6-7.249-1.046-1.487-2.635-2.488-3.992-3.692-5.089-4.523-6.853-11.772-7.022-18.585s.956-13.638.379-20.428c-.226-2.657-1.221-5.852-3.833-6.367a13.492,13.492,0,0,1-2.488-.317c-2.1-.809-1.894-3.766-2.493-5.931-.673-2.431-2.748-4.308-3.33-6.785-1.374-5.767,5.965-12.648,10.777-14.655C913.308,203.639,920.766,204.125,925.922,204.758Z" transform="translate(-456.285 -116.789)" opacity="0.1"/>
        <path id="Path_139" data-name="Path 139" d="M926.762,203.075c2.895.356,6.219,1.351,7.249,4.071a27.819,27.819,0,0,1,.661,3.138c1.08,4.161,5.767,6.1,8.656,9.284,2.55,2.827,3.675,6.61,4.523,10.313a96.913,96.913,0,0,1,1.7,32.375c-.927,7.916-2.827,15.684-3.359,23.623s.441,16.289,4.778,22.961c1.866,2.867,4.331,5.388,5.654,8.543-2.731,2.216-6.5,2.533-10.025,2.652q-6.146.209-12.3,0a13.116,13.116,0,0,1-6.248-1.3,9.647,9.647,0,0,1-3.279-3.523c-2.346-3.958-2.934-8.764-2.827-13.378s.831-9.2.916-13.824c.045-2.516-.153-5.19-1.6-7.249-1.046-1.487-2.635-2.488-3.992-3.692-5.089-4.523-6.853-11.772-7.022-18.585s.956-13.638.379-20.428c-.226-2.657-1.221-5.852-3.833-6.367a13.491,13.491,0,0,1-2.488-.317c-2.1-.809-1.894-3.766-2.494-5.931-.673-2.431-2.748-4.308-3.33-6.785-1.374-5.767,5.965-12.648,10.777-14.655C914.148,201.95,921.606,202.436,926.762,203.075Z" transform="translate(-456.65 -116.056)" fill="#472727"/>
      </g>
    </g>
  </g>
</svg>
